# Blender 4.0.0
# www.blender.org
mtllib cannon.mtl
o cannon
v 0.228127 0.299893 0.196831
v 0.227721 0.122010 0.173127
v 0.244180 0.334312 0.127026
v 0.239027 0.101865 0.109596
v 0.253758 0.357436 0.045115
v 0.238141 0.358459 -0.141248
v 0.174344 0.442882 -0.138229
v -0.000000 0.465289 -0.390649
v 0.146885 0.412574 -0.390794
v 0.245869 0.088918 0.033956
v 0.176122 0.004023 0.040713
v 0.174215 0.028578 0.129150
v 0.170783 0.079921 0.214822
v 0.000000 0.376985 0.296998
v 0.000000 0.465258 0.189496
v 0.178434 0.412545 0.156662
v 0.169494 0.341074 0.246712
v 0.183444 0.451064 0.059418
v -0.000000 0.506675 -0.135672
v -0.000000 0.457762 -0.637441
v 0.141492 0.407432 -0.637581
v 0.201557 0.342543 -0.391254
v 0.232244 0.095349 -0.145444
v 0.167802 0.016388 -0.144991
v -0.000000 -0.055830 0.055342
v -0.000000 -0.021404 0.159065
v 0.000000 0.043711 0.261670
v -0.000000 0.516210 0.078207
v 0.194664 0.339787 -0.637748
v 0.199208 0.116157 -0.392409
v -0.000000 -0.042244 -0.143643
v 0.193210 0.120341 -0.638118
v 0.144193 0.048202 -0.392641
v -0.000000 0.465975 -0.790630
v 0.146896 0.414180 -0.791307
v 0.202036 0.343852 -0.791399
v 0.139962 0.054187 -0.638164
v -0.000000 -0.002316 -0.392753
v 0.200666 0.116257 -0.791357
v -0.000000 0.005035 -0.637958
v -0.000000 0.465041 -0.837898
v 0.147345 0.414250 -0.835260
v 0.202426 0.344056 -0.835039
v 0.201255 0.116485 -0.835064
v 0.145461 0.047619 -0.791379
v -0.000000 -0.003534 -0.790804
v -0.000000 0.440949 -0.844755
v 0.132797 0.396059 -0.847333
v 0.182422 0.332874 -0.847310
v 0.181234 0.127869 -0.847322
v 0.145877 0.047320 -0.835205
v -0.000000 -0.002065 -0.837503
v -0.000000 0.445605 -0.809829
v 0.133778 0.397289 -0.809829
v 0.183840 0.333871 -0.809829
v 0.182752 0.127099 -0.809829
v 0.131524 0.065478 -0.847261
v -0.000000 0.021613 -0.845309
v -0.000000 0.017202 -0.809829
v 0.132463 0.064447 -0.809829
v -0.228127 0.299893 0.196831
v -0.227721 0.122010 0.173127
v -0.244180 0.334312 0.127026
v -0.239027 0.101865 0.109596
v -0.253758 0.357436 0.045115
v -0.238141 0.358459 -0.141248
v -0.174344 0.442882 -0.138229
v -0.146885 0.412574 -0.390794
v -0.245869 0.088918 0.033956
v -0.176122 0.004023 0.040713
v -0.174215 0.028578 0.129150
v -0.170783 0.079921 0.214822
v -0.178434 0.412545 0.156662
v -0.169494 0.341074 0.246712
v -0.183444 0.451064 0.059418
v -0.141492 0.407432 -0.637581
v -0.201557 0.342543 -0.391254
v -0.232245 0.095349 -0.145444
v -0.167802 0.016388 -0.144991
v -0.194664 0.339787 -0.637748
v -0.199208 0.116157 -0.392409
v -0.193210 0.120341 -0.638117
v -0.144193 0.048202 -0.392641
v -0.146896 0.414180 -0.791307
v -0.202036 0.343852 -0.791399
v -0.139962 0.054187 -0.638164
v -0.200666 0.116257 -0.791357
v -0.147346 0.414250 -0.835260
v -0.202426 0.344056 -0.835039
v -0.201256 0.116485 -0.835064
v -0.145462 0.047619 -0.791379
v -0.132798 0.396059 -0.847333
v -0.182422 0.332874 -0.847310
v -0.181234 0.127869 -0.847322
v -0.145878 0.047320 -0.835205
v -0.133779 0.397289 -0.809829
v -0.183840 0.333871 -0.809829
v -0.182752 0.127099 -0.809829
v -0.131524 0.065478 -0.847261
v -0.132463 0.064447 -0.809829
v -0.208171 0.230131 -0.809829
v 0.281774 0.220125 0.034696
v -0.281774 0.220125 0.034696
v -0.227467 0.228707 -0.391921
v -0.266443 0.225277 -0.144333
v 0.000000 0.200000 0.324513
v 0.227467 0.228707 -0.391921
v -0.228538 0.230030 -0.791467
v 0.266443 0.225277 -0.144333
v 0.243061 0.210726 0.184527
v -0.206698 0.230270 -0.847510
v 0.229055 0.229968 -0.834836
v -0.220175 0.229675 -0.637983
v 0.220174 0.229675 -0.637983
v 0.208171 0.230131 -0.809829
v 0.269559 0.216314 0.110457
v 0.168170 0.202546 0.264851
v 0.206697 0.230270 -0.847510
v 0.228538 0.230030 -0.791467
v -0.229055 0.229968 -0.834836
v -0.168170 0.202546 0.264851
v -0.269559 0.216314 0.110457
v -0.243061 0.210726 0.184527
vn 0.8834 -0.3619 -0.2977
vn 0.8207 -0.2334 -0.5215
vn 0.8624 0.0656 -0.5020
vn 0.9737 0.0396 -0.2244
vn -0.0000 0.4624 0.8867
vn 0.2490 0.3618 0.8984
vn -0.5114 -0.7006 0.4976
vn -0.0000 -0.8562 0.5167
vn 0.7872 0.3882 0.4791
vn -0.3868 -0.1978 0.9007
vn -0.4169 -0.0028 0.9090
vn 0.8815 0.0052 0.4722
vn 0.9926 0.0200 0.1200
vn 0.9955 0.0121 0.0938
vn 0.9000 -0.4255 0.0946
vn 0.9004 -0.4198 0.1143
vn 0.5374 -0.4036 -0.7404
vn -0.0000 -0.4955 -0.8686
vn -0.0000 0.1153 -0.9933
vn 0.5174 0.1063 -0.8491
vn 0.5619 0.8232 -0.0806
vn 0.5448 0.7661 -0.3411
vn -0.0000 0.9078 -0.4194
vn -0.0000 0.9931 -0.1176
vn -0.5802 0.8119 -0.0648
vn -0.2490 0.3618 0.8984
vn -0.3875 0.1936 0.9013
vn -0.8995 0.4348 -0.0428
vn 0.9012 -0.4322 -0.0325
vn 0.9021 -0.4313 -0.0127
vn 0.9999 0.0076 -0.0125
vn 0.9994 0.0057 -0.0329
vn -0.0000 -0.9997 -0.0235
vn 0.5819 -0.8128 -0.0280
vn 0.5114 -0.7006 0.4976
vn -0.0000 -0.9954 0.0957
vn 0.5835 -0.8065 0.0955
vn 0.5835 -0.8120 -0.0128
vn -0.0000 -0.9999 -0.0128
vn -0.5764 0.8167 -0.0273
vn -0.5059 0.7064 0.4950
vn -0.0000 0.8596 0.5110
vn -0.0000 0.9998 -0.0221
vn -0.0000 0.9933 0.1157
vn 0.5681 0.8146 0.1172
vn -0.5767 0.8169 -0.0130
vn -0.0000 0.9999 -0.0128
vn -0.5681 0.8146 0.1172
vn -0.5726 0.8143 0.0952
vn -0.0000 0.9954 0.0961
vn 0.8905 0.4451 0.0940
vn 0.5726 0.8143 0.0952
vn 0.5767 0.8169 -0.0130
vn 0.8960 0.4438 -0.0128
vn 0.5059 0.7064 0.4950
vn 0.8957 0.4434 -0.0329
vn 0.5764 0.8167 -0.0273
vn 0.9990 0.0300 -0.0320
vn 0.9079 -0.4132 -0.0707
vn -0.5374 -0.4036 -0.7404
vn -0.5174 0.1063 -0.8491
vn -0.5819 -0.8128 -0.0280
vn -0.5292 0.5459 -0.6496
vn -0.8624 0.0656 -0.5020
vn -0.8143 0.3604 -0.4549
vn 0.5292 0.5459 -0.6496
vn -0.0000 0.6399 -0.7684
vn -0.5835 -0.8120 -0.0128
vn -0.5835 -0.8065 0.0955
vn 0.5868 -0.8027 0.1070
vn -0.0000 -0.9947 0.1033
vn -0.8834 -0.3619 -0.2977
vn -0.5666 -0.6986 -0.4369
vn -0.5859 -0.7986 -0.1378
vn -0.9079 -0.4132 -0.0707
vn -0.5868 -0.8027 0.1070
vn -0.8905 0.4451 0.0940
vn -0.8841 0.4517 0.1200
vn -0.9926 0.0200 0.1200
vn -0.9955 0.0121 0.0938
vn 0.5802 0.8119 -0.0648
vn -0.0000 0.9963 -0.0857
vn -0.0000 -0.9828 -0.1848
vn 0.5859 -0.7986 -0.1378
vn -0.5619 0.8232 -0.0806
vn -0.8207 -0.2334 -0.5215
vn -0.9004 -0.4198 0.1144
vn -0.9000 -0.4255 0.0946
vn 0.8859 0.4624 -0.0369
vn 0.8662 0.4399 -0.2370
vn -0.8815 0.0052 0.4722
vn -0.7872 0.3882 0.4791
vn -0.8957 0.4434 -0.0329
vn -0.9994 0.0057 -0.0329
vn -0.8859 0.4624 -0.0369
vn 0.5666 -0.6986 -0.4369
vn 0.8841 0.4517 0.1200
vn -0.5448 0.7661 -0.3411
vn -0.9991 -0.0062 -0.0419
vn -0.8958 -0.4425 -0.0420
vn -0.0000 -0.8511 -0.5251
vn -0.9990 0.0300 -0.0320
vn 0.7912 -0.3805 0.4788
vn -0.9737 0.0396 -0.2244
vn -0.2452 -0.3556 0.9019
vn -0.7912 -0.3805 0.4788
vn -0.9012 -0.4322 -0.0325
vn 0.8143 0.3604 -0.4549
vn -0.0000 -0.4491 0.8935
vn -0.0000 -0.9969 -0.0788
vn -0.5760 -0.8153 -0.0599
vn -0.8662 0.4399 -0.2370
vn -0.8960 0.4438 -0.0128
vn -0.9021 -0.4313 -0.0127
vn 0.3875 0.1936 0.9013
vn 0.3868 -0.1978 0.9007
vn 0.8958 -0.4425 -0.0420
vn 0.5760 -0.8153 -0.0599
vn 0.2452 -0.3556 0.9019
vn -0.9999 0.0076 -0.0125
vn 0.8995 0.4348 -0.0428
vn 0.9991 -0.0062 -0.0419
vn 0.4169 -0.0028 0.9090
vt 0.217775 0.235493
vt 0.212881 0.237969
vt 0.207662 0.234017
vt 0.211098 0.228680
vt 0.861261 0.787451
vt 0.862645 0.818606
vt 0.856967 0.819323
vt 0.855539 0.787451
vt 0.874382 0.690865
vt 0.879787 0.693108
vt 0.871572 0.715685
vt 0.866080 0.713987
vt 0.228870 0.209242
vt 0.265285 0.186978
vt 0.274394 0.209197
vt 0.238511 0.223570
vt 0.213193 0.243478
vt 0.213188 0.253709
vt 0.201854 0.253708
vt 0.204045 0.241262
vt 0.188445 0.213408
vt 0.190173 0.225305
vt 0.164554 0.253707
vt 0.149875 0.217200
vt 0.871704 0.757424
vt 0.862645 0.756296
vt 0.865597 0.738769
vt 0.874472 0.740544
vt 0.367898 0.186412
vt 0.327694 0.194956
vt 0.319546 0.166062
vt 0.359790 0.153869
vt 0.845736 0.787451
vt 0.847782 0.754471
vt 0.856967 0.755579
vt 0.282005 0.253716
vt 0.278912 0.225348
vt 0.331840 0.216278
vt 0.334557 0.253724
vt 0.873646 0.905065
vt 0.881971 0.900819
vt 0.898785 0.928163
vt 0.890283 0.933726
vt 0.164037 0.162279
vt 0.200720 0.184614
vt 0.299499 0.392048
vt 0.339849 0.409580
vt 0.320617 0.450705
vt 0.280668 0.430958
vt 0.164032 0.345127
vt 0.200712 0.322799
vt 0.241693 0.361036
vt 0.217744 0.396068
vt 0.252979 0.164099
vt 0.241711 0.146377
vt 0.299534 0.115369
vt 0.308891 0.137030
vt 0.881971 0.674083
vt 0.865846 0.687200
vt 0.873646 0.669837
vt 0.214826 0.223310
vt 0.223103 0.232433
vt 0.213192 0.263940
vt 0.204043 0.266155
vt 0.349156 0.121490
vt 0.847782 0.820431
vt 0.194910 0.271760
vt 0.207660 0.273400
vt 0.200979 0.276269
vt 0.194912 0.235656
vt 0.187130 0.253708
vt 0.217763 0.111335
vt 0.331825 0.291167
vt 0.278904 0.282082
vt 0.372050 0.296696
vt 0.374615 0.253734
vt 0.243060 0.234472
vt 0.245929 0.253712
vt 0.217773 0.271926
vt 0.220306 0.265158
vt 0.226851 0.266951
vt 0.223100 0.274986
vt 0.243056 0.272951
vt 0.252962 0.343318
vt 0.214855 0.312232
vt 0.228863 0.298176
vt 0.265270 0.320444
vt 0.871704 0.817478
vt 0.869567 0.787451
vt 0.339896 0.097839
vt 0.228377 0.253710
vt 0.226853 0.240469
vt 0.188441 0.294006
vt 0.149875 0.290211
vt 0.212879 0.269449
vt 0.238505 0.283851
vt 0.274384 0.298230
vt 0.202262 0.216415
vt 0.201009 0.224512
vt 0.866080 0.860915
vt 0.874382 0.884037
vt 0.865846 0.887702
vt 0.857328 0.863578
vt 0.202258 0.291000
vt 0.220308 0.242261
vt 0.214863 0.195183
vt 0.190170 0.282110
vt 0.880321 0.718402
vt 0.888277 0.696697
vt 0.221083 0.253710
vt 0.320666 0.056701
vt 0.280705 0.076447
vt 0.214822 0.284107
vt 0.851082 0.735869
vt 0.857328 0.711325
vt 0.860043 0.737667
vt 0.211095 0.278738
vt 0.887175 0.676703
vt 0.860043 0.837235
vt 0.851082 0.839034
vt 0.200981 0.231148
vt 0.903066 0.650328
vt 0.909976 0.654411
vt 0.895510 0.680871
vt 0.201006 0.282903
vt 0.372073 0.210766
vt 0.898785 0.646739
vt 0.308858 0.370393
vt 0.349110 0.385937
vt 0.327672 0.312484
vt 0.865597 0.836133
vt 0.879787 0.881794
vt 0.888277 0.878205
vt 0.895510 0.894031
vt 0.887175 0.898199
vt 0.903066 0.924574
vt 0.319517 0.341370
vt 0.367864 0.321042
vt 0.909976 0.920491
vt 0.874472 0.834358
vt 0.880321 0.856500
vt 0.871572 0.859217
vt 0.359747 0.353570
vt 0.890283 0.641176
s 1
usemtl Material
f 63/1/1 61/2/2 123/3/3 122/4/4
f 47/5/5 48/6/6 42/7/7 41/8/8
f 90/9/9 94/10/10 111/11/11 120/12/12
f 105/13/13 104/14/14 77/15/15 66/16/16
f 74/17/17 14/18/18 106/19/19 121/20/20
f 70/21/21 71/22/22 26/23/23 25/24/24
f 96/25/25 92/26/26 93/27/27 97/28/28
f 85/29/29 80/30/30 113/31/31 108/32/32
f 41/8/8 34/33/33 84/34/34 88/35/35
f 8/36/36 68/37/37 76/38/38 20/39/39
f 45/40/40 51/41/41 52/42/42 46/43/43
f 31/44/44 79/45/45 70/21/21 25/24/24
f 37/46/46 45/47/40 46/48/43 40/49/47
f 31/50/44 24/51/48 33/52/49 38/53/50
f 81/54/51 83/55/52 86/56/53 82/57/54
f 95/58/55 90/9/9 87/59/56 91/60/57
f 63/1/1 122/4/4 103/61/58 65/62/59
f 17/63/60 117/64/61 106/19/19 14/18/18
f 87/65/56 108/32/32 113/31/31 82/57/54
f 35/66/62 34/33/33 41/8/8 42/7/7
f 33/52/49 37/46/46 40/49/47 38/53/50
f 13/67/63 117/64/61 110/68/64 2/69/65
f 72/70/66 121/20/20 106/19/19 27/71/67
f 83/55/52 79/45/45 31/44/44 38/72/50
f 8/36/36 20/39/39 21/73/68 9/74/69
f 35/75/62 21/73/68 20/39/39 34/76/33
f 67/77/70 68/37/37 8/36/36 19/78/71
f 3/79/72 16/80/73 18/81/74 5/82/75
f 19/78/71 8/36/36 9/74/69 7/83/76
f 30/84/77 23/85/78 109/86/79 107/87/80
f 54/88/81 48/6/6 47/5/5 53/89/82
f 87/65/56 82/57/54 86/56/53 91/90/57
f 28/91/83 75/92/84 67/77/70 19/78/71
f 11/93/85 24/51/48 31/50/44 25/94/24
f 110/68/64 117/64/61 17/63/60 1/95/86
f 6/96/87 7/83/76 9/74/69 22/97/88
f 69/98/89 64/99/90 71/22/22 70/21/21
f 112/100/91 44/101/92 39/102/93 119/103/94
f 11/93/85 10/104/95 23/85/78 24/51/48
f 73/105/96 74/17/17 61/2/2 63/1/1
f 79/45/45 83/55/52 81/54/51 78/106/97
f 6/96/87 22/97/88 107/87/80 109/86/79
f 47/5/5 92/26/26 96/25/25 53/89/82
f 27/71/67 13/67/63 12/107/98 26/23/23
f 101/108/99 111/11/11 94/10/10 98/109/100
f 74/17/17 73/105/96 15/110/101 14/18/18
f 12/107/98 11/93/85 25/94/24 26/23/23
f 75/92/84 73/105/96 63/1/1 65/62/59
f 46/111/43 91/90/57 86/56/53 40/112/47
f 88/35/35 92/26/26 47/5/5 41/8/8
f 66/16/16 67/77/70 75/92/84 65/62/59
f 15/110/101 16/80/73 17/63/60 14/18/18
f 10/104/95 102/113/102 109/86/79 23/85/78
f 85/114/29 108/115/32 120/12/12 89/116/103
f 3/79/72 116/117/104 110/68/64 1/95/86
f 90/9/9 95/58/55 99/118/105 94/10/10
f 73/105/96 75/92/84 28/91/83 15/110/101
f 43/119/106 112/100/91 119/103/94 36/120/107
f 72/70/66 62/121/108 123/3/3 121/20/20
f 58/122/109 59/123/110 100/124/111 99/118/105
f 86/56/53 83/55/52 38/72/50 40/112/47
f 33/52/49 24/51/48 23/85/78 30/84/77
f 77/15/15 80/30/30 76/38/38 68/37/37
f 12/107/98 13/67/63 2/69/65 4/125/112
f 101/108/99 97/28/28 93/27/27 111/11/11
f 110/68/64 116/117/104 4/125/112 2/69/65
f 84/126/34 34/76/33 20/39/39 76/38/38
f 99/118/105 95/58/55 52/127/42 58/122/109
f 32/128/113 39/129/93 45/47/40 37/46/46
f 72/70/66 27/71/67 26/23/23 71/22/22
f 29/130/114 22/97/88 9/74/69 21/73/68
f 64/99/90 122/4/4 123/3/3 62/121/108
f 85/114/29 89/116/103 88/35/35 84/34/34
f 42/7/7 43/119/106 36/120/107 35/66/62
f 105/13/13 78/106/97 81/54/51 104/14/14
f 48/6/6 49/131/115 43/119/106 42/7/7
f 50/132/116 56/133/117 60/134/118 57/135/119
f 102/113/102 5/82/75 6/96/87 109/86/79
f 51/41/41 57/135/119 58/136/109 52/42/42
f 100/124/111 98/109/100 94/10/10 99/118/105
f 32/128/113 30/84/77 107/87/80 114/137/120
f 21/73/68 35/75/62 36/138/107 29/130/114
f 67/77/70 66/16/16 77/15/15 68/37/37
f 66/16/16 65/62/59 103/61/58 105/13/13
f 80/30/30 85/29/29 84/126/34 76/38/38
f 64/99/90 69/98/89 103/61/58 122/4/4
f 58/136/109 57/135/119 60/134/118 59/139/110
f 49/131/115 55/140/121 115/141/122 118/142/123
f 44/101/92 51/41/41 45/40/40 39/102/93
f 32/128/113 114/137/120 119/143/94 39/129/93
f 29/130/114 36/138/107 119/143/94 114/137/120
f 18/81/74 7/83/76 6/96/87 5/82/75
f 10/104/95 11/93/85 12/107/98 4/125/112
f 105/13/13 103/61/58 69/98/89 78/106/97
f 30/84/77 32/128/113 37/46/46 33/52/49
f 16/80/73 15/110/101 28/91/83 18/81/74
f 62/121/108 72/70/66 71/22/22 64/99/90
f 70/21/21 79/45/45 78/106/97 69/98/89
f 17/63/60 16/80/73 3/79/72 1/95/86
f 55/140/121 49/131/115 48/6/6 54/88/81
f 46/144/43 52/127/42 95/58/55 91/60/57
f 93/27/27 92/26/26 88/35/35 89/116/103
f 57/135/119 51/41/41 44/101/92 50/132/116
f 111/11/11 93/27/27 89/116/103 120/12/12
f 118/142/123 50/132/116 44/101/92 112/100/91
f 7/83/76 18/81/74 28/91/83 19/78/71
f 10/104/95 4/125/112 116/117/104 102/113/102
f 81/54/51 82/57/54 113/31/31 104/14/14
f 3/79/72 5/82/75 102/113/102 116/117/104
f 50/132/116 118/142/123 115/141/122 56/133/117
f 61/2/2 74/17/17 121/20/20 123/3/3
f 22/97/88 29/130/114 114/137/120 107/87/80
f 77/15/15 104/14/14 113/31/31 80/30/30
f 49/131/115 118/142/123 112/100/91 43/119/106
f 13/67/63 27/71/67 106/19/19 117/64/61
f 90/9/9 120/12/12 108/115/32 87/59/56
