# Blender 4.0.0
# www.blender.org
mtllib castle gates.mtl
o gate_bars
v -1.240947 0.622144 2.396017
v -1.019621 0.622144 2.396017
v -1.019621 0.622144 2.187203
v -1.240947 0.622144 2.187203
v -0.788833 0.622144 2.396017
v -0.567508 0.622144 2.396017
v -0.567508 0.622144 2.187203
v -0.788833 0.622144 2.187203
v -0.336719 0.622144 2.396017
v -0.115394 0.622144 2.396017
v -0.115394 0.622144 2.187203
v -0.336719 0.622144 2.187203
v 0.115394 0.622144 2.396017
v 0.336719 0.622144 2.396017
v 0.336719 0.622144 2.187203
v 0.115394 0.622144 2.187203
v 0.567508 0.622144 2.396017
v 0.788833 0.622144 2.396017
v 0.788833 0.622144 2.187203
v 0.567508 0.622144 2.187203
v 1.019621 0.622144 2.396017
v 1.240947 0.622144 2.396017
v 1.240947 0.622144 2.187203
v 1.019621 0.622144 2.187203
v -1.240947 4.085616 2.396017
v -1.019621 4.085616 2.396017
v -0.788833 4.085616 2.396017
v -0.567508 4.085616 2.396017
v -0.336719 4.085616 2.396017
v -0.115394 4.085616 2.396017
v 0.115394 4.085616 2.396017
v 0.336719 4.085616 2.396017
v 0.567508 4.085616 2.396017
v 0.788833 4.085616 2.396017
v 1.019621 4.085616 2.396017
v 1.240947 4.085616 2.396017
v 1.240947 4.085616 2.187203
v 1.019621 4.085616 2.187203
v 0.788833 4.085616 2.187203
v 0.567508 4.085616 2.187203
v 0.336719 4.085616 2.187203
v 0.115394 4.085616 2.187203
v -0.115394 4.085616 2.187203
v -0.336719 4.085616 2.187203
v -0.567508 4.085616 2.187203
v -0.788833 4.085616 2.187203
v -1.019621 4.085616 2.187203
v -1.240947 4.085616 2.187203
vn -0.0000 -1.0000 -0.0000
vn -0.0000 1.0000 -0.0000
vn 1.0000 -0.0000 -0.0000
vn -0.0000 -0.0000 -1.0000
vn -0.0000 -0.0000 1.0000
vn -1.0000 -0.0000 -0.0000
vt 0.463371 0.324052
vt 0.474871 0.324052
vt 0.486862 0.324052
vt 0.498362 0.324052
vt 0.510353 0.324052
vt 0.521853 0.324052
vt 0.533844 0.324052
vt 0.545344 0.324052
vt 0.557335 0.324052
vt 0.568835 0.324052
vt 0.580826 0.324052
vt 0.592326 0.324052
vt 0.463371 0.504008
vt 0.474871 0.504008
vt 0.486862 0.504008
vt 0.498362 0.504008
vt 0.510353 0.504008
vt 0.521853 0.504008
vt 0.533844 0.504008
vt 0.545344 0.504008
vt 0.557335 0.504008
vt 0.568835 0.504008
vt 0.580826 0.504008
vt 0.592326 0.504008
s 0
usemtl metal
f 1/1/1 4/1/1 3/2/1 2/2/1
f 5/3/1 8/3/1 7/4/1 6/4/1
f 9/5/1 12/5/1 11/6/1 10/6/1
f 13/7/1 16/7/1 15/8/1 14/8/1
f 17/9/1 20/9/1 19/10/1 18/10/1
f 21/11/1 24/11/1 23/12/1 22/12/1
f 25/13/2 26/14/2 47/14/2 48/13/2
f 27/15/2 28/16/2 45/16/2 46/15/2
f 29/17/2 30/18/2 43/18/2 44/17/2
f 31/19/2 32/20/2 41/20/2 42/19/2
f 33/21/2 34/22/2 39/22/2 40/21/2
f 35/23/2 36/24/2 37/24/2 38/23/2
f 6/4/3 7/4/3 45/16/3 28/16/3
f 15/8/4 16/7/4 42/19/4 41/20/4
f 22/12/3 23/12/3 37/24/3 36/24/3
f 5/3/5 6/4/5 28/16/5 27/15/5
f 12/5/6 9/5/6 29/17/6 44/17/6
f 11/6/4 12/5/4 44/17/4 43/18/4
f 9/5/5 10/6/5 30/18/5 29/17/5
f 10/6/3 11/6/3 43/18/3 30/18/3
f 7/4/4 8/3/4 46/15/4 45/16/4
f 13/7/5 14/8/5 32/20/5 31/19/5
f 16/7/6 13/7/6 31/19/6 42/19/6
f 3/2/4 4/1/4 48/13/4 47/14/4
f 17/9/5 18/10/5 34/22/5 33/21/5
f 14/8/3 15/8/3 41/20/3 32/20/3
f 4/1/6 1/1/6 25/13/6 48/13/6
f 21/11/5 22/12/5 36/24/5 35/23/5
f 20/9/6 17/9/6 33/21/6 40/21/6
f 2/2/3 3/2/3 47/14/3 26/14/3
f 23/12/4 24/11/4 38/23/4 37/24/4
f 18/10/3 19/10/3 39/22/3 34/22/3
f 8/3/6 5/3/6 27/15/6 46/15/6
f 19/10/4 20/9/4 40/21/4 39/22/4
f 24/11/6 21/11/6 35/23/6 38/23/6
f 1/1/5 2/2/5 26/14/5 25/13/5
